<?xml version="1.0" encoding="utf-8"?>
<!-- Generator: Adobe Illustrator 23.0.6, SVG Export Plug-In . SVG Version: 6.00 Build 0)  -->
<svg version="1.1" id="Layer_1" xmlns="http://www.w3.org/2000/svg" xmlns:xlink="http://www.w3.org/1999/xlink" x="0px" y="0px"
	 viewBox="0 0 885.6 435.5" style="enable-background:new 0 0 885.6 435.5;" xml:space="preserve">
<style type="text/css">
	.st0{fill:#010202;}
</style>
<g>
	<path class="st0" d="M114.2,183.2c-39.6-31.7-44.1-37.9-44.1-63.9V85.4c0-12.4,7.9-19.8,18.1-19.8c10.7,0,18.1,7.4,18.1,19.8v56
		h70.1V88.2C176.5,34.5,140.8,0,88.2,0C36.2,0,0.6,34.5,0.6,88.2v41.3c0,39,9,60.5,62.2,104.6c35.6,29.4,44.1,35.6,44.1,69.6v45.8
		c0,13-7.9,20.4-18.7,20.4c-10.2,0-18.7-7.4-18.7-20.4v-55.4H0v53.7c0,56.6,36.2,87.7,88.2,87.7c52.6,0,88.8-31.1,88.8-87.7v-59.9
		C177,251.1,166.8,225.1,114.2,183.2z"/>
	<path class="st0" d="M281.6,5.7h-80.3v424.2h70.1V266.4h10.2c67.9,0,101.8-35.6,101.8-119.9v-20.4C383.4,41.3,349.5,5.7,281.6,5.7z
		 M312.8,147.6c0,44.1-10.7,53.7-31.1,53.7h-10.2V71.3h10.2c20.4,0,31.1,9.6,31.1,53.7V147.6z"/>
	<path class="st0" d="M617,0c-54.9,0-92.2,36.8-92.2,87.7v259.6c0,51.5,37.3,88.2,92.2,88.2c54.3,0,91.6-36.8,91.6-88.2v-91.6h-70.7
		v91.6c0,14.1-8.5,23.2-20.9,23.2c-13,0-21.5-9-21.5-23.2v-259C595.5,74.1,604,65,617,65c12.4,0,20.9,9,20.9,23.2v87.7h70.7V87.7
		C708.6,36.8,671.3,0,617,0z"/>
	<polygon class="st0" points="808.7,364.2 808.7,242 868.7,242 868.7,176.4 808.7,176.4 808.7,71.3 885.1,71.3 885.1,5.7 738.6,5.7 
		738.6,429.8 885.6,429.8 885.6,364.2 	"/>
</g>
</svg>
